<?xml version="1.0" standalone="no"?>
<!DOCTYPE svg PUBLIC "-//W3C//DTD SVG 20010904//EN"
 "http://www.w3.org/TR/2001/REC-SVG-20010904/DTD/svg10.dtd">
<svg version="1.0" xmlns="http://www.w3.org/2000/svg"
 width="133.000000pt" height="127.000000pt" viewBox="0 0 133.000000 127.000000"
 preserveAspectRatio="xMidYMid meet">

<g transform="translate(0.000000,127.000000) scale(0.100000,-0.100000)"
fill="#000000" stroke="none">
<path d="M597 1162 c-26 -26 -47 -51 -47 -55 0 -4 21 -6 48 -3 26 2 74 5 107
5 l59 1 -49 50 c-27 28 -54 50 -60 50 -6 0 -32 -22 -58 -48z"/>
<path d="M530 980 c0 -58 -1 -60 -27 -62 -16 0 -38 0 -50 1 -31 2 -29 -4 10
-39 37 -34 86 -41 83 -12 -1 12 8 18 32 20 21 2 30 7 26 15 -5 8 -3 8 7 0 17
-17 33 -17 26 0 -2 6 1 18 9 24 10 10 17 8 32 -12 29 -37 37 -30 12 11 -12 19
-20 38 -17 41 4 3 16 -15 29 -41 12 -25 25 -46 29 -46 12 0 20 36 14 67 -4 23
-3 22 8 -6 17 -43 23 -33 25 40 l2 57 -125 1 -125 2 0 -61z m210 10 c0 -5 -2
-10 -4 -10 -3 0 -8 5 -11 10 -3 6 -1 10 4 10 6 0 11 -4 11 -10z m-4 -87 c-3
-4 -13 10 -21 30 -21 51 -18 59 6 14 11 -22 18 -41 15 -44z"/>
<path d="M435 1000 c-3 -5 -1 -10 4 -10 6 0 11 5 11 10 0 6 -2 10 -4 10 -3 0
-8 -4 -11 -10z"/>
<path d="M865 1000 c-3 -5 1 -10 10 -10 9 0 13 5 10 10 -3 6 -8 10 -10 10 -2
0 -7 -4 -10 -10z"/>
<path d="M817 900 c3 -11 7 -20 9 -20 2 0 4 9 4 20 0 11 -4 20 -9 20 -5 0 -7
-9 -4 -20z"/>
<path d="M840 905 c0 -8 5 -15 11 -15 5 0 7 5 4 10 -3 6 5 10 19 10 13 0 27
-6 29 -12 3 -8 6 -6 6 5 1 13 -7 17 -34 17 -24 0 -35 -5 -35 -15z"/>
<path d="M183 752 l-132 -137 49 -49 49 -49 59 51 c33 29 65 52 71 52 6 0 11
-16 11 -35 0 -28 -8 -40 -44 -70 l-43 -37 24 -24 c19 -19 34 -24 61 -22 l37 3
1 228 c0 125 -2 227 -5 227 -4 -1 -65 -63 -138 -138z"/>
<path d="M1000 869 c0 -5 5 -7 10 -4 6 3 10 8 10 11 0 2 -4 4 -10 4 -5 0 -10
-5 -10 -11z"/>
<path d="M810 860 c0 -5 5 -10 10 -10 6 0 10 5 10 10 0 6 -4 10 -10 10 -5 0
-10 -4 -10 -10z"/>
<path d="M1010 845 c-11 -13 -10 -14 4 -9 14 5 16 2 12 -19 -4 -21 -1 -24 17
-19 20 5 21 4 7 -13 -13 -16 -13 -18 0 -12 8 4 23 10 33 13 25 9 21 23 -5 17
-19 -4 -20 -3 -8 6 12 9 9 10 -15 5 -24 -4 -27 -3 -15 6 11 9 12 13 2 17 -6 2
-10 9 -6 14 9 15 -13 10 -26 -6z"/>
<path d="M585 840 c-3 -5 -1 -10 4 -10 6 0 11 5 11 10 0 6 -2 10 -4 10 -3 0
-8 -4 -11 -10z"/>
<path d="M870 840 c0 -5 5 -10 11 -10 5 0 7 5 4 10 -3 6 -8 10 -11 10 -2 0 -4
-4 -4 -10z"/>
<path d="M400 605 c0 -96 4 -175 9 -175 4 0 8 68 7 151 0 83 1 154 4 158 3 5
18 11 33 15 24 6 30 3 34 -14 3 -11 12 -20 20 -20 13 0 13 3 3 15 -11 13 -8
15 21 16 32 1 33 1 9 10 -21 7 -20 8 10 4 19 -2 46 -7 60 -10 21 -4 22 -4 5 3
l-20 9 20 5 c11 2 -33 5 -97 6 l-118 2 0 -175z"/>
<path d="M1080 770 c-12 -8 -11 -10 7 -10 12 0 25 5 28 10 8 13 -15 13 -35 0z"/>
<path d="M1097 753 c-31 -5 -27 -22 6 -24 14 -1 9 -4 -13 -9 -30 -6 -26 -8 28
-9 35 0 62 3 62 9 0 6 -12 10 -26 10 -22 0 -25 2 -14 15 13 16 13 16 -43 8z"/>
<path d="M490 694 c0 -9 5 -14 12 -12 18 6 21 28 4 28 -9 0 -16 -7 -16 -16z"/>
<path d="M1028 693 c31 -16 185 -18 180 -2 -2 7 -42 11 -104 12 -86 2 -96 0
-76 -10z"/>
<path d="M498 663 c7 -3 16 -2 19 1 4 3 -2 6 -13 5 -11 0 -14 -3 -6 -6z"/>
<path d="M1093 663 c31 -2 57 -9 57 -15 0 -6 -13 -8 -34 -4 -20 4 -37 2 -41
-4 -4 -6 5 -10 22 -11 l28 -1 -25 -8 c-16 -5 -19 -8 -8 -9 9 -1 20 -6 24 -13
4 -6 3 -8 -4 -4 -6 3 -13 2 -17 -4 -3 -5 5 -12 19 -16 14 -3 28 -15 31 -25 9
-29 20 -24 75 32 48 49 50 53 34 70 -15 16 -31 19 -118 17 -65 -1 -80 -3 -43
-5z m104 -29 c-3 -3 -12 -4 -19 -1 -8 3 -5 6 6 6 11 1 17 -2 13 -5z m-9 -21
c-10 -2 -26 -2 -35 0 -10 3 -2 5 17 5 19 0 27 -2 18 -5z m-31 -29 c-3 -3 -12
-4 -19 -1 -8 3 -5 6 6 6 11 1 17 -2 13 -5z"/>
<path d="M496 642 c-8 -13 0 -47 10 -45 11 3 14 42 3 48 -4 3 -10 2 -13 -3z"/>
<path d="M1020 621 c0 -5 9 -7 20 -4 11 3 20 7 20 9 0 2 -9 4 -20 4 -11 0 -20
-4 -20 -9z"/>
<path d="M494 510 c-1 -54 2 -70 13 -70 11 0 13 15 11 70 -4 91 -23 91 -24 0z"/>
<path d="M1013 565 c0 -8 4 -12 9 -9 5 3 6 10 3 15 -9 13 -12 11 -12 -6z"/>
<path d="M1012 531 c-10 -6 -10 -10 3 -21 8 -7 15 -17 15 -22 0 -6 -6 -6 -14
1 -11 9 -13 6 -13 -14 0 -23 3 -25 41 -25 22 0 49 7 59 14 16 13 15 16 -25 45
-46 34 -47 34 -66 22z m38 -23 c0 -6 -6 -5 -15 2 -8 7 -15 14 -15 16 0 2 7 1
15 -2 8 -4 15 -11 15 -16z"/>
<path d="M895 480 c-19 -8 -19 -9 3 -9 12 -1 22 4 22 9 0 6 -1 10 -2 9 -2 0
-12 -4 -23 -9z"/>
<path d="M538 373 c-43 -4 -48 -7 -48 -27 0 -19 7 -25 34 -30 19 -4 45 -15 59
-26 15 -12 40 -20 65 -20 32 0 41 4 45 22 6 20 8 20 50 -18 24 -21 42 -42 40
-46 -2 -5 3 -8 11 -8 20 0 21 19 1 26 -9 4 -15 19 -15 40 0 33 1 34 39 34 23
0 41 5 44 13 2 6 2 -14 -1 -45 -2 -32 -1 -58 4 -58 5 0 25 18 45 41 35 40 36
42 22 70 -16 33 -29 37 -36 12 -3 -13 -5 -14 -6 -3 -2 23 -88 24 -94 1 -4 -14
-5 -14 -6 2 0 9 -5 17 -11 17 -5 0 -14 -8 -19 -17 -10 -17 -10 -17 -11 0 0 14
-10 17 -69 17 -38 0 -75 1 -83 3 -7 2 -34 2 -60 0z"/>
<path d="M391 298 c2 -2 23 -21 47 -43 l42 -39 0 42 0 42 -47 0 c-25 0 -44 -1
-42 -2z"/>
<path d="M574 125 c27 -25 51 -43 54 -40 3 3 5 18 4 35 -1 26 3 30 34 36 48 9
63 0 62 -36 -1 -16 1 -32 4 -35 2 -2 24 16 48 40 l44 45 -149 0 -150 0 49 -45z"/>
<path d="M657 71 c-17 -6 -17 -8 2 -25 21 -19 21 -19 42 0 19 17 19 19 2 25
-10 4 -20 8 -23 8 -3 0 -13 -4 -23 -8z"/>
</g>
</svg>
